Blade Runner

source:

Blade.Runner.1982.Final.Cut.720p.HDDVD.DTS.x264-ESiR 
http://www.imdb.com/title/tt0083658/

ID                               : 1
Format                           : AVC
Format/Info                      : Advanced Video Codec
Format profile                   : Baseline@L2.0
Format settings, CABAC           : No
Format settings, ReFrames        : 3 frames
Codec ID                         : avc1
Codec ID/Info                    : Advanced Video Coding
Duration                         : 1h 57mn
Bit rate mode                    : Variable
Bit rate                         : 395 Kbps
Width                            : 464 pixels
Height                           : 192 pixels
Display aspect ratio             : 2.40:1
Frame rate mode                  : Variable
Frame rate                       : 23.976 fps
Minimum frame rate               : 23.810 fps
Maximum frame rate               : 24.390 fps
Color space                      : YUV
Chroma subsampling               : 4:2:0
Bit depth                        : 8 bits
Scan type                        : Progressive
Bits/(Pixel*Frame)               : 0.185
Stream size                      : 332 MiB (75%)
Writing library                  : x264 core 79

ID                               : 2
Format                           : AAC
Format/Info                      : Advanced Audio Codec
Format version                   : Version 4
Format profile                   : LC
Format settings, SBR             : No
Codec ID                         : 40
Duration                         : 1h 57mn
Bit rate mode                    : Variable
Bit rate                         : 128 Kbps
Maximum bit rate                 : 206 Kbps
Channel(s)                       : 2 channels
Channel positions                : Front: L R
Sampling rate                    : 48.0 KHz
Stream size                      : 107 MiB (24%)
Language                         : English
 
http://img375.imageshack.us/img375/9587/vlcsnap00001p.png 
http://img175.imageshack.us/img175/2329/vlcsnap00002i.png 
http://img534.imageshack.us/img534/9809/vlcsnap00003it.png 
http://img714.imageshack.us/img714/5479/vlcsnap00004xv.png 
http://img28.imageshack.us/img28/8225/vlcsnap00005n.png 
http://img443.imageshack.us/img443/6129/vlcsnap00006e.png 
http://img39.imageshack.us/img39/5922/vlcsnap00007z.png 
http://img541.imageshack.us/img541/3580/vlcsnap00008n.png





PLEASE LET THE TORRENT SEED AND SHARE IT WITH ALL YOU KNOW!

Let me know what I can do to be your trusted source of Handheld videos.





-OOO 
